<svg width="960" height="173" viewBox="0 0 960 173" fill="none" xmlns="http://www.w3.org/2000/svg">
<g clip-path="url(#clip0_303_181)">
<path d="M191.56 125L223.24 48H241.61L272.96 125H255.69L247.88 104.76H216.09L208.17 125H191.56ZM221.04 92H243.04L232.04 63.62L221.04 92ZM313.04 126.21C307.32 126.21 302.003 125.22 297.09 123.24C292.176 121.187 287.85 118.363 284.11 114.77C280.37 111.103 277.436 106.887 275.31 102.12C273.256 97.28 272.23 92.0733 272.23 86.5C272.23 80.9267 273.256 75.7567 275.31 70.99C277.436 66.15 280.333 61.9333 284 58.34C287.666 54.6733 291.956 51.85 296.87 49.87C301.856 47.8167 307.173 46.79 312.82 46.79C319.2 46.79 325.213 48.0733 330.86 50.64C336.506 53.1333 341.163 56.6533 344.83 61.2L333.72 71.43C331.08 68.13 327.963 65.6367 324.37 63.95C320.776 62.2633 316.926 61.42 312.82 61.42C309.373 61.42 306.183 62.08 303.25 63.4C300.316 64.6467 297.75 66.4067 295.55 68.68C293.35 70.88 291.626 73.52 290.38 76.6C289.206 79.6067 288.62 82.9067 288.62 86.5C288.62 90.0933 289.243 93.43 290.49 96.51C291.736 99.59 293.46 102.267 295.66 104.54C297.933 106.74 300.536 108.5 303.47 109.82C306.476 111.067 309.74 111.69 313.26 111.69C316.926 111.69 320.226 111.03 323.16 109.71C326.093 108.317 328.55 106.41 330.53 103.99C332.583 101.497 333.94 98.71 334.6 95.63H311.83V81.77H351.65V86.61C351.65 92.33 350.66 97.61 348.68 102.45C346.773 107.217 344.096 111.397 340.65 114.99C337.203 118.51 333.133 121.26 328.44 123.24C323.746 125.22 318.613 126.21 313.04 126.21ZM390.034 126.1C383.8 126.1 377.714 124.963 371.774 122.69C365.834 120.343 360.554 117.043 355.934 112.79L365.064 101.35C369.537 105.31 373.827 108.17 377.934 109.93C382.114 111.69 386.514 112.57 391.134 112.57C394.36 112.57 397.147 112.203 399.494 111.47C401.84 110.663 403.637 109.527 404.884 108.06C406.204 106.593 406.864 104.87 406.864 102.89C406.864 100.25 405.91 98.2333 404.004 96.84C402.097 95.3733 398.834 94.2367 394.214 93.43L378.924 90.79C372.397 89.69 367.41 87.38 363.964 83.86C360.59 80.34 358.904 75.7933 358.904 70.22C358.904 65.4533 360.114 61.31 362.534 57.79C365.027 54.27 368.51 51.5933 372.984 49.76C377.53 47.8533 382.92 46.9 389.154 46.9C394.8 46.9 400.41 47.8533 405.984 49.76C411.63 51.6667 416.617 54.3067 420.944 57.68L412.364 69.56C404.297 63.4 396.194 60.32 388.054 60.32C385.194 60.32 382.7 60.6867 380.574 61.42C378.447 62.1533 376.797 63.18 375.624 64.5C374.524 65.7467 373.974 67.25 373.974 69.01C373.974 71.3567 374.817 73.19 376.504 74.51C378.19 75.7567 381.014 76.71 384.974 77.37L399.494 79.79C407.194 81.0367 412.95 83.4933 416.764 87.16C420.577 90.7533 422.484 95.52 422.484 101.46C422.484 106.447 421.164 110.81 418.524 114.55C415.884 118.217 412.107 121.077 407.194 123.13C402.354 125.11 396.634 126.1 390.034 126.1Z" fill="#BE1522"/>
<path d="M482.071 126.1C475.984 126.1 470.154 124.89 464.581 122.47C459.008 119.977 454.094 116.42 449.841 111.8L455.451 105.97C459.411 110.223 463.628 113.413 468.101 115.54C472.648 117.667 477.414 118.73 482.401 118.73C486.434 118.73 489.991 118.107 493.071 116.86C496.224 115.54 498.681 113.743 500.441 111.47C502.201 109.123 503.081 106.483 503.081 103.55C503.081 99.59 501.688 96.5467 498.901 94.42C496.188 92.2933 491.678 90.7167 485.371 89.69L474.261 87.93C466.854 86.6833 461.391 84.4833 457.871 81.33C454.351 78.1767 452.591 73.8867 452.591 68.46C452.591 64.2067 453.728 60.4667 456.001 57.24C458.274 54.0133 461.428 51.52 465.461 49.76C469.568 47.9267 474.298 47.01 479.651 47.01C485.078 47.01 490.394 47.89 495.601 49.65C500.881 51.41 505.684 53.94 510.011 57.24L505.171 63.84C496.738 57.46 488.121 54.27 479.321 54.27C475.654 54.27 472.428 54.8567 469.641 56.03C466.854 57.13 464.691 58.7067 463.151 60.76C461.611 62.74 460.841 65.0867 460.841 67.8C460.841 71.3933 462.051 74.1433 464.471 76.05C466.891 77.9567 470.888 79.35 476.461 80.23L487.461 81.99C495.894 83.3833 502.018 85.7667 505.831 89.14C509.644 92.44 511.551 97.0967 511.551 103.11C511.551 107.583 510.304 111.58 507.811 115.1C505.318 118.547 501.834 121.26 497.361 123.24C492.961 125.147 487.864 126.1 482.071 126.1ZM553.308 126.21C546.781 126.21 541.135 124.853 536.368 122.14C531.601 119.353 527.935 115.43 525.368 110.37C522.801 105.31 521.518 99.3333 521.518 92.44V48H529.988V92.44C529.988 97.72 530.941 102.303 532.848 106.19C534.755 110.077 537.468 113.083 540.988 115.21C544.508 117.337 548.615 118.4 553.308 118.4C558.075 118.4 562.181 117.337 565.628 115.21C569.148 113.083 571.861 110.077 573.768 106.19C575.675 102.303 576.628 97.72 576.628 92.44V48H585.098V92.44C585.098 99.3333 583.778 105.31 581.138 110.37C578.571 115.43 574.905 119.353 570.138 122.14C565.445 124.853 559.835 126.21 553.308 126.21ZM600.509 125V48H633.949C639.009 48 643.372 48.9167 647.039 50.75C650.779 52.5833 653.676 55.1867 655.729 58.56C657.782 61.86 658.809 65.7467 658.809 70.22C658.809 74.6933 657.782 78.6167 655.729 81.99C653.676 85.29 650.779 87.8933 647.039 89.8C643.299 91.6333 638.936 92.55 633.949 92.55H608.979V125H600.509ZM608.979 85.18H633.289C638.496 85.18 642.639 83.86 645.719 81.22C648.799 78.5067 650.339 74.8767 650.339 70.33C650.339 65.7833 648.799 62.19 645.719 59.55C642.639 56.91 638.496 55.59 633.289 55.59H608.979V85.18ZM671.73 125V48H705.17C710.23 48 714.593 48.9167 718.26 50.75C722 52.5833 724.896 55.1867 726.95 58.56C729.003 61.86 730.03 65.7467 730.03 70.22C730.03 74.6933 729.003 78.6167 726.95 81.99C724.896 85.29 722 87.8933 718.26 89.8C714.52 91.6333 710.156 92.55 705.17 92.55H680.2V125H671.73ZM680.2 85.18H704.51C709.716 85.18 713.86 83.86 716.94 81.22C720.02 78.5067 721.56 74.8767 721.56 70.33C721.56 65.7833 720.02 62.19 716.94 59.55C713.86 56.91 709.716 55.59 704.51 55.59H680.2V85.18ZM779.03 126.21C773.457 126.21 768.25 125.22 763.41 123.24C758.644 121.187 754.427 118.363 750.76 114.77C747.167 111.103 744.344 106.887 742.29 102.12C740.31 97.28 739.32 92.0733 739.32 86.5C739.32 80.9267 740.31 75.7567 742.29 70.99C744.344 66.15 747.167 61.9333 750.76 58.34C754.427 54.6733 758.644 51.85 763.41 49.87C768.25 47.8167 773.457 46.79 779.03 46.79C784.53 46.79 789.664 47.8167 794.43 49.87C799.27 51.85 803.487 54.6733 807.08 58.34C810.747 61.9333 813.57 66.15 815.55 70.99C817.604 75.7567 818.63 80.9267 818.63 86.5C818.63 92.0733 817.604 97.28 815.55 102.12C813.57 106.887 810.747 111.103 807.08 114.77C803.487 118.363 799.27 121.187 794.43 123.24C789.664 125.22 784.53 126.21 779.03 126.21ZM779.03 118.4C783.43 118.4 787.5 117.593 791.24 115.98C794.98 114.367 798.244 112.13 801.03 109.27C803.89 106.337 806.09 102.927 807.63 99.04C809.244 95.1533 810.05 90.9733 810.05 86.5C810.05 81.9533 809.244 77.7733 807.63 73.96C806.09 70.0733 803.89 66.7 801.03 63.84C798.244 60.9067 794.98 58.6333 791.24 57.02C787.5 55.4067 783.43 54.6 779.03 54.6C774.63 54.6 770.524 55.4067 766.71 57.02C762.97 58.6333 759.67 60.9067 756.81 63.84C754.024 66.7 751.824 70.0733 750.21 73.96C748.67 77.7733 747.9 81.9167 747.9 86.39C747.9 90.9367 748.67 95.1533 750.21 99.04C751.824 102.927 754.024 106.337 756.81 109.27C759.67 112.13 762.97 114.367 766.71 115.98C770.524 117.593 774.63 118.4 779.03 118.4ZM831.896 125V48H864.896C869.956 48 874.356 48.9167 878.096 50.75C881.836 52.5833 884.732 55.15 886.786 58.45C888.912 61.75 889.976 65.6367 889.976 70.11C889.976 75.17 888.472 79.5333 885.466 83.2C882.532 86.7933 878.572 89.3233 873.586 90.79L890.856 125H881.506L865.006 91.89H840.366V125H831.896ZM840.366 84.74H864.346C869.552 84.74 873.696 83.42 876.776 80.78C879.929 78.14 881.506 74.5833 881.506 70.11C881.506 65.71 879.929 62.19 876.776 59.55C873.696 56.91 869.552 55.59 864.346 55.59H840.366V84.74ZM921.231 125V55.59H893.401V48H957.531V55.59H929.701V125H921.231Z" fill="#3C3C3B"/>
<rect x="30" y="35" width="29" height="29" rx="14.5" fill="#BE1522"/>
<rect x="134" y="28" width="29" height="29" rx="14.5" fill="#09B3B6"/>
<path d="M54.5 171C71.3535 169.055 45.2591 138.63 48.5 121.5C52 103 98.5 59 98.5 59C98.5 59 92.2455 54.4526 90 52.5C87.7545 50.5474 85.5 48.5 85.5 48.5C85.5 48.5 69 69.7143 48.5 78.5C27.9999 87.2858 17.9999 51.5 15.4999 47.5C12.9999 43.5 1.49997 40.5 1.49997 52C1.49997 63.5 17.9321 79.1341 19 98C20.4999 124.5 -10.5 144.5 4.99994 147C11.5456 148.056 14.0168 143.389 20.5 142C34.4999 139 41.5 172.5 54.5 171Z" fill="#BE1522"/>
<path d="M85.5 25C83.5 20.5 79 0.999993 95.5 0C96.4982 -0.0604946 79.0449 -1.18726 72.5 10.5C53.74 44 131 65 122 93.5C116.413 111.192 87.9147 124.5 99.5 132.5C108.189 138.5 124.5 115.586 136.5 117.5C149.501 119.574 154.808 141.494 162.5 136C173 128.5 153.121 109 154.5 100C157.368 81.277 190.609 68.5849 177 58C172.5 54.5 161.5 70.9016 143.5 65C132.211 61.2988 124.467 57.1601 115.5 51C99.5 40.008 88.2463 31.1792 85.5 25Z" fill="#09B3B6"/>
<path d="M109.5 45C109.5 45 129 19.5 112 5.5C99.3376 -4.92784 88.2115 1.44819 85.5 7.5C83.0725 12.9178 85.5 22.5 85.5 22.5C85.5 22.5 89 6 99 14C109 22 95.5 34 95.5 34C95.5 34 99.2572 37.4515 101.5 39.5C103.752 41.557 109.5 45 109.5 45Z" fill="#BE1522"/>
</g>
<defs>
<clipPath id="clip0_303_181">
<rect width="960" height="173" fill="white"/>
</clipPath>
</defs>
</svg>
